<svg version="1.1" xmlns="http://www.w3.org/2000/svg" xmlns:xlink="http://www.w3.org/1999/xlink" width="1489.733px" height="1698.268px" viewBox="0,0,224.5625,256"><g fill="#000000" fill-rule="nonzero" stroke="none" stroke-width="1" stroke-linecap="butt" stroke-linejoin="miter" stroke-miterlimit="10" stroke-dasharray="" stroke-dashoffset="0" font-family="none" font-weight="none" font-size="none" text-anchor="none" style="mix-blend-mode: normal"><path d="M0,256v-256h224.5625v256z" id="bgRectangle"></path></g><g fill="#ffffff" fill-rule="nonzero" stroke="none" stroke-width="1" stroke-linecap="butt" stroke-linejoin="miter" stroke-miterlimit="10" stroke-dasharray="" stroke-dashoffset="0" font-family="none" font-weight="none" font-size="none" text-anchor="none" style="mix-blend-mode: normal"><g transform="translate(0.00007,0.00154) scale(1.00001,1)"><g><g transform="translate(-0.00135,0.00008) scale(0.15074,0.15074)"><g id="shopping_bag_2"><path d="M1489.668,1540.226l-50.734,-1145.759c-0.896,-84.585 -70.35,-153.199 -155.591,-153.199h-257.892c-20.928,-135 -138.858,-241.268 -280.762,-241.268c-141.942,0 -259.905,106.268 -280.839,241.268h-257.537c-85.217,0 -154.649,68.616 -155.543,153.202l-50.706,1145.718c-0.042,0.972 -0.064,1.958 -0.064,2.933c0,85.543 69.797,155.146 155.592,155.146h1178.556c85.79,0 155.586,-69.583 155.586,-155.127c-0.001,-0.974 -0.022,-1.94 -0.066,-2.914zM744.689,132.141c68.746,0 126.941,46.126 145.617,109.126h-291.308c18.686,-62.999 76.91,-109.126 145.691,-109.126zM1334.147,1566.268h-1178.555c-12.811,0 -22.917,-9.645 -23.43,-22.062l50.674,-1145.048c0.043,-0.971 0.064,-2.111 0.064,-3.084c0,-12.695 10.283,-22.806 23.412,-22.806h253.688v241.459c0,36.49 29.51,66.07 66,66.07c36.49,0 66,-29.58 66,-66.07v-241.459h304v241.459c0,36.49 29.51,66.07 66,66.07c36.49,0 66,-29.58 66,-66.07v-241.459h255.343c13.153,0 23.457,10.095 23.457,22.79c0,0.974 0.021,2.023 0.064,2.998l50.706,1145.117c-0.513,12.413 -10.617,22.095 -23.423,22.095z"></path></g><g id="Layer_1" font-family="Inter, apple-system, BlinkMacSystemFont, &quot;Helvetica Neue&quot;, &quot;Segoe UI&quot;, &quot;Fira Sans&quot;, Roboto, Oxygen, Ubuntu, &quot;Droid Sans&quot;, Arial, sans-serif" font-weight="400" font-size="16" text-anchor="start"></g></g></g></g></g></svg>